# xmcd
#
# Track frame offsets: 
#        150
#        5042
#        18910
#        37047
#        52635
#        61017
#
# Disc length: 1060 seconds
#
# Revision: 1
# Processed by: cddbd v1.5.2PL0 Copyright (c) Steve Scherf et al.
# Submitted via: ExactAudioCopyFreeDBPlugin 1.0
#
DISCID=3c042206
DTITLE=Tech N9ne - Seepage EP
DYEAR=2010
DGENRE=Hip-Hop
TTITLE0=Choking From It
TTITLE1=Seepage (feat. Tonesha Sanders)
TTITLE2=Asshole (feat. Big Scoob and Krizz Kaliko)
TTITLE3=Alucard
TTITLE4=Bite Me (feat. Tonesha Sanders and Jessica Slankard)
TTITLE5=Trippin' Comin' (feat. Krizz Kaliko)
EXTD=
EXTT0=
EXTT1=
EXTT2=
EXTT3=
EXTT4=
EXTT5=
PLAYORDER=
